<svg width="124" height="24" viewBox="0 0 124 24" xmlns="http://www.w3.org/2000/svg">
<path d="M93.066 4.875c-.067-.036-.177-.054-.328-.054h-.23v.54h.243c.116 0 .202-.01.26-.033a.231.231 0 00.158-.234c0-.107-.035-.181-.103-.219zm-.287-.24c.186 0 .324.019.41.054.157.066.234.192.234.38 0 .135-.048.234-.144.297a.544.544 0 01-.217.074.359.359 0 01.255.146c.054.08.08.158.08.233v.11c0 .035.002.073.004.113a.214.214 0 00.013.078l.009.018h-.248l-.004-.015a.124.124 0 01-.003-.017l-.005-.049V5.94c0-.175-.05-.289-.144-.345a.66.66 0 00-.3-.05h-.212v.593h-.255V4.635h.528zm-.807-.073c-.228.23-.343.506-.343.832 0 .326.114.606.342.837.23.23.51.346.838.346.33 0 .606-.115.836-.346.23-.231.345-.51.345-.837 0-.327-.115-.603-.345-.832a1.14 1.14 0 00-.835-.347c-.326 0-.606.116-.838.347zm1.802 1.798c-.267.267-.59.402-.968.402s-.7-.135-.966-.402a1.323 1.323 0 01-.395-.97c0-.38.133-.695.399-.962.266-.265.586-.398.962-.398s.701.133.968.398c.266.266.4.587.4.962 0 .376-.134.702-.4.97zM7.37 6.176c-.905 0-1.6.335-2.604.938-.053.032-.095.007-.095-.053v-.785a.076.076 0 00-.095-.073L.085 7.358a.114.114 0 00-.085.11V8.53c0 .05.046.085.094.074l.563-.14a.076.076 0 01.094.073V18.55a.114.114 0 01-.113.113H.113a.113.113 0 00-.113.113v1.02c0 .062.051.113.113.113h5.836a.113.113 0 00.113-.113v-1.02a.112.112 0 00-.113-.113H4.784a.113.113 0 01-.113-.113v-1.854c0-.046.048-.076.09-.056.603.292 1.421.361 1.986.361 3.17 0 5.012-2.93 5.012-5.859 0-2.928-1.928-4.966-4.39-4.966zm-1.372 9.246c-1.028 0-1.327-.77-1.327-1.683v-5.13c0-.066.042-.123.104-.143.154-.051.33-.087.515-.087.663 0 2.55.186 2.55 3.926 0 2.327-.558 3.117-1.842 3.117M22.056 9.619c0-2.451-1.586-3.45-3.984-3.45-.8 0-1.608.104-2.494.444-.054.021-.085-.008-.066-.064l.122-.355a.112.112 0 00-.072-.143l-1.076-.348a.114.114 0 00-.14.065L13.06 8.933a.111.111 0 00.067.148l1.141.411a.114.114 0 00.126-.036c.6-.742 1.175-1.13 2.327-1.13.943 0 1.413.357 1.413 1.21v.372a.075.075 0 01-.073.075l-2.947.075c-1.871.045-3.362 1.396-3.362 3.778 0 1.932 1.455 3.158 3.407 3.158 1.108 0 1.977-.436 2.97-1.226.037-.03.09-.01.1.034l.183.784a.126.126 0 00.122.096h4.094c.062 0 .113-.05.113-.113v-1.02a.113.113 0 00-.113-.112h-.46a.113.113 0 01-.112-.115V9.62zm-3.921 3.677c0 .79-.194 1.517-1.178 1.517-1.05 0-1.285-.915-1.285-1.725 0-1.059.771-1.786 1.842-1.786h.545c.041 0 .076.034.076.075v1.919zM39.724 9.619c0-2.451-1.586-3.45-3.983-3.45-.8 0-1.608.104-2.493.444-.055.021-.085-.008-.066-.064l.121-.355a.112.112 0 00-.071-.143l-1.077-.348a.114.114 0 00-.14.065L30.73 8.933a.112.112 0 00.065.148l1.143.411a.114.114 0 00.126-.036c.6-.742 1.175-1.13 2.327-1.13.943 0 1.413.357 1.413 1.21v.372a.076.076 0 01-.074.075l-2.947.075c-1.87.045-3.362 1.396-3.362 3.778 0 1.932 1.456 3.158 3.406 3.158 1.108 0 1.978-.436 2.97-1.226.037-.03.092-.01.102.034l.182.784a.126.126 0 00.123.096h4.093c.062 0 .114-.05.114-.113v-1.02a.113.113 0 00-.114-.112h-.46a.114.114 0 01-.113-.115V9.62zm-3.92 3.677c0 .79-.193 1.517-1.177 1.517-1.05 0-1.286-.915-1.286-1.725 0-1.059.772-1.786 1.84-1.786h.548c.04 0 .075.034.075.075v1.919zM91.967 9.619c0-2.451-1.584-3.45-3.983-3.45-.8 0-1.607.104-2.493.444-.056.021-.085-.008-.066-.064l.121-.355a.112.112 0 00-.071-.143l-1.077-.348a.114.114 0 00-.14.065l-1.285 3.165a.112.112 0 00.066.148l1.142.411a.114.114 0 00.126-.036c.6-.742 1.175-1.13 2.327-1.13.943 0 1.413.357 1.413 1.21v.372a.076.076 0 01-.074.075l-2.947.075c-1.87.045-3.362 1.396-3.362 3.778 0 1.932 1.456 3.158 3.406 3.158 1.11 0 1.978-.436 2.972-1.226.035-.03.09-.01.1.034l.182.784a.126.126 0 00.123.096h4.094c.062 0 .113-.05.113-.113v-1.02a.113.113 0 00-.113-.112h-.46a.114.114 0 01-.114-.115V9.62zm-3.92 3.677c0 .79-.193 1.517-1.177 1.517-1.05 0-1.286-.915-1.286-1.725 0-1.059.772-1.786 1.841-1.786h.547c.041 0 .075.034.075.075v1.919zM27.387 6.482a.113.113 0 01-.113-.113v-.72c0-.395.036-1.005.133-1.515a.102.102 0 00-.081-.118l-1.098-.2a.112.112 0 00-.124.068c-.671 1.511-2.108 2.58-3.707 3.047a.127.127 0 00-.092.121v.936c0 .062.052.113.113.113h.823c.063 0 .113.051.113.113v6.038c0 1.807.75 2.742 2.698 2.742 1.69 0 1.862-.032 3.246-1.036a.114.114 0 00.039-.135l-.431-1.041a.074.074 0 00-.104-.04c-.225.116-.366.134-.649.134-.323 0-.88-.126-.88-.769V8.214c0-.062.05-.113.114-.113h1.374c.054 0 .1-.038.112-.091l.29-1.439a.076.076 0 00-.074-.09h-1.702zM57.295 6.17c-3.406 0-6.04 2.056-6.04 5.402s2.634 5.422 6.04 5.422 6.062-2.057 6.062-5.422c0-3.364-2.634-5.402-6.062-5.402zm.685 9.244c-2.164 0-2.805-3.822-2.805-5.318 0-.768 0-2.348 1.455-2.348 2.164 0 2.806 3.824 2.806 5.319 0 1.123-.299 2.347-1.456 2.347z" fill="white"></path><path d="M74.882 15.436a.114.114 0 01-.113-.113V9.12c0-1.142-.384-2.95-3.104-2.95-1.368 0-2.417.722-3.562 1.605-.055.043-.102.021-.102-.049v-1.46a.076.076 0 00-.095-.072l-4.533 1.2a.114.114 0 00-.084.11v1.04c0 .05.048.085.096.071l.558-.154a.076.076 0 01.096.073v6.789a.114.114 0 01-.113.113h-.523a.114.114 0 00-.113.113v1.02c0 .062.05.113.113.113h5.278a.114.114 0 00.113-.113v-1.02a.114.114 0 00-.113-.113h-.609a.113.113 0 01-.113-.113V9.608c0-.058.025-.114.07-.153.557-.476 1.052-.792 1.687-.792.577 0 1.134.312 1.134.914v5.746c0 .061-.05.112-.113.112h-.587a.114.114 0 00-.113.114v1.02c0 .062.051.113.113.113h5.236a.114.114 0 00.113-.113v-1.02a.114.114 0 00-.113-.114h-.504zM78.346 6.127c1.07 0 2.763-.456 2.763-1.765 0-1.08-.985-1.309-1.906-1.309-.921 0-2.314.77-2.314 1.786 0 .852.6 1.288 1.457 1.288zM80.937 15.323V6.269a.075.075 0 00-.095-.073l-4.512 1.24a.112.112 0 00-.084.108V8.55c0 .047.042.084.09.074l.593-.11a.075.075 0 01.088.075v6.734c0 .062-.05.113-.113.113h-.587a.114.114 0 00-.114.113v1.02c0 .062.051.113.114.113h5.214a.114.114 0 00.113-.112v-1.021a.114.114 0 00-.113-.113h-.48a.114.114 0 01-.114-.113zM45.318 14.911c-.167-.016-.17-.06-.006-.098 2.934-.695 5.521-1.506 5.521-4.53 0-2.43-2.014-3.074-2.014-3.49 0-.228.128-.47.496-.47.122 0 .359.024.566.143.05.03.114.002.128-.055l.412-1.678a.086.086 0 00-.075-.109 7.22 7.22 0 00-.692-.054c-1.158 0-1.542.312-1.8 1.08l-.231.702a.111.111 0 01-.128.076c-.652-.12-1.273-.258-2.252-.258-2.336 0-4.778 1.288-4.778 4.28 0 2.008 1.591 3.316 3.57 3.662.113.02.115.062.007.096-.706.225-1.694.84-2.952 1.044a.096.096 0 00-.076.136l.436 1.122a.15.15 0 00.165.094c.552-.097 1.765-.021 2.52.058.177.018.178.061.004.098-1.033.222-1.853.911-1.853 1.75 0 1.683 1.927 2.078 3.812 2.078 1.287 0 4.39-.54 4.39-2.805 0-2.11-2.983-2.662-5.17-2.871m-1.363-6.04c0-.998.322-1.393 1.115-1.393 1.607 0 2.27 3.136 2.27 4.259 0 .998-.321 1.393-1.114 1.393-1.606 0-2.27-3.138-2.27-4.26zm2.229 10.719c-.6 0-.879-.562-.879-1.08 0-.367.103-.951.305-1.311a.125.125 0 01.174-.046c.774.461 1.214.813 1.214 1.669 0 .519-.279.768-.815.768M116.197 16.852l7.758-6.57a.125.125 0 000-.191l-7.758-6.569a.1.1 0 00-.165.077v13.176a.1.1 0 00.165.077zM109.396 3.383c-3.235 0-4.944 2.565-5.301 5.582-.01.076-.059.09-.11.034-1.226-1.375-3.452-1.915-5.78-.853-.063.028-.102-.004-.088-.07l.348-1.591a.115.115 0 01.11-.09h4.854a.113.113 0 00.11-.089l.674-3.215a.077.077 0 00-.075-.091h-1.131a.114.114 0 00-.109.082l-.087.302a.112.112 0 01-.108.083h-5.37a.113.113 0 00-.111.087l-1.497 6.604a.123.123 0 00.041.124l1.136.963c.04.032.097.036.14.006 3.103-2.149 5.658.045 5.658 1.472 0 .888-.494 1.554-1.471 1.554-1.3 0-2.299-1.184-3.192-2.006a.103.103 0 00-.133-.001l-2.862 2.423a.113.113 0 00-.007.165c1.583 1.625 3.142 2.127 4.887 2.127 2.186 0 3.897-1.411 4.638-3.287.032-.08.083-.08.116-.002.801 1.921 2.352 3.296 4.72 3.296 3.665 0 5.373-3.293 5.373-6.805 0-3.511-1.708-6.804-5.373-6.804m1.439 11.21c-1.867 0-4.069-3.991-4.069-7.089 0-1.155.472-1.723 1.192-1.723 1.865 0 4.069 3.992 4.069 7.09 0 1.155-.473 1.722-1.192 1.722z" fill="white"></path></svg>